<svg width="1286" height="192" viewBox="0 0 1286 192" fill="none" xmlns="http://www.w3.org/2000/svg">
<path d="M385.728 0.349976C402.22 0.701976 418.805 0.387965 435.302 0.563965C457.097 0.795965 477.799 -2.14004 496.346 11.83C506.791 19.602 513.69 31.231 515.506 44.124C519.836 75.339 494.827 94.387 466.716 98.222C491.22 113.173 491.202 124.625 501.386 150.527C506.533 163.616 511.495 176.391 516.135 189.837L497.87 190.005C495.349 184.851 492.173 175.949 490.022 170.38C483.143 153.749 473.475 118.206 461.962 106.662C458.826 103.518 454.943 100.847 450.668 99.538C439.321 96.064 415.434 97.842 402.887 97.903C402.883 116.323 402.984 134.742 403.19 153.161C403.288 165.124 403.699 178.213 402.807 190.061L385.625 190.078C384.181 127.682 386.385 63.047 385.728 0.349976ZM484.8 81.471C507.119 57.245 499.766 14.591 466.501 7.89096C449.991 4.56496 420.747 6.70095 403.239 6.49295L402.877 92.625C417.019 92.624 431.224 92.601 445.362 92.583C461.346 92.562 472.05 92.643 484.8 81.471Z" fill="#FEFEFE"/>
<path d="M723.202 0.427032L740.949 0.421021C740.483 42.04 740.675 84.894 740.852 126.551C766.323 98.47 791.832 68.804 816.974 40.274L838.477 16.072C841.236 12.926 853.241 -3.65898 857.612 1.63702C857.553 4.97502 797.315 68.309 790.56 80.45L790.21 81.094C799.385 97.252 811.745 116.033 821.691 132.028C833.659 150.439 847.943 171.089 858.312 190.136L839.4 190.185C833.799 180.654 826.827 171.313 821.079 161.771C807.242 138.799 791.541 116.573 778.022 93.467C768.997 103.816 747.482 125.416 740.849 135.992C740.042 152.16 740.575 173.453 740.505 190.041L723.245 190.156C722.766 180.103 723.065 167.875 723.055 157.703L723.044 98.58C723.049 67.691 721.999 30.848 723.202 0.427032Z" fill="#FEFEFE"/>
<path d="M972.008 0C976.708 2.838 1001.41 35.052 1007.63 42.697L1061.65 108.724C1074.96 125.173 1088.79 143.046 1102.56 159.032C1101.97 123.501 1103.03 87.012 1102.72 51.406C1102.65 44.252 1102.09 6.118 1103.47 1.78C1105.12 0.620999 1104.35 0.911992 1106.48 0.791992L1107.46 1.75699C1109.03 5.75299 1108.31 174.635 1108.17 189.268C1106.32 189.55 1104.96 188.362 1103.86 186.995C1062.17 135.468 1019.59 83.919 978.098 32.297C979.048 80.073 977.548 128.137 978.288 175.945C978.348 179.642 978.858 187.917 975.748 190.174L974.568 189.477C970.178 183.696 974.348 35.24 972.118 14.719C971.908 12.814 971.998 2.507 972.008 0Z" fill="#FEFEFE"/>
<path d="M63.0709 1.97998C82.5189 2.58398 91.9888 5.439 110.06 13.073C113.248 14.42 118.951 18.418 120.216 21.844L119.67 22.729C116.816 23.028 113.121 21.345 110.575 20.135C98.7228 14.503 87.2988 9.69898 74.0808 8.32498C52.9858 5.46498 17.9635 10.587 15.0468 37.07C11.8019 66.532 60.0058 75.39 79.9818 84.066C96.0468 91.043 112.732 96.896 123.839 110.41C131.53 119.693 135.177 131.672 133.965 143.666C132.578 156.859 125.265 168.686 114.984 176.758C95.4688 192.079 72.6048 193.326 49.1858 190.969C32.347 188.436 8.62465 178.123 0.214846 161.972C-0.251754 161.075 0.128947 160.734 0.530047 159.952C3.55155 160.102 7.67684 163.737 9.84204 165.861C33.3649 188.982 86.1409 196.481 109.205 169.117C124.436 151.046 119.442 124.861 100.035 112.378C73.5659 95.17 37.9808 92.534 13.2683 72.437C-2.65046 58.601 -4.59486 36.527 10.2469 21.022C24.8278 5.79 42.9748 2.90298 63.0709 1.97998Z" fill="#FEFEFE"/>
<path d="M1209.2 1.971C1226.69 0.417003 1247.59 5.849 1263.17 13.574C1267.13 15.536 1272.59 17.82 1271.1 23.018C1266.98 24.542 1260.87 19.021 1256.9 17.195C1246.58 12.297 1236.67 9.68099 1225.26 8.32199C1203.19 5.69099 1168.28 9.833 1166.28 38.289C1164.81 59.142 1187.81 68.255 1203.92 74.399C1227.78 83.505 1256.65 90.427 1274.53 110.032C1292.6 129.821 1287.42 158.532 1268.21 175.1C1250.5 190.375 1228.01 193.012 1205.51 191.326C1185.03 188.466 1168.55 183.036 1153.7 166.588C1152.39 165.132 1150.93 162.795 1151.19 160.774L1152.46 159.798C1157.23 159.96 1164.46 168.927 1168.89 172.312C1199.58 196.688 1275.21 192.078 1268.78 139.298C1262.4 86.919 1157.21 101.715 1151.92 48.761C1150.95 39.218 1153.93 29.693 1160.16 22.402C1172.31 7.996 1191.35 3.559 1209.2 1.971Z" fill="#FEFEFE"/>
<path d="M258.275 0.634033C260.649 2.87303 267.566 21.778 269.33 26.129C277.161 45.377 284.873 64.673 292.466 84.016C305.491 116.794 323.396 157.149 334.588 190.145L316.358 190.179C295.351 140.065 276.318 87.707 255.205 37.258C254.544 35.632 253.813 34.067 253.085 32.472L252.405 32.421C246.372 44.36 237.738 68.261 232.619 81.47L203.898 153.733C200.998 160.974 192.066 184.804 187.99 189.555C186.132 190.346 185.824 190.22 183.848 189.686C183.199 187.104 213.626 114.091 217.665 103.62L242.887 39.756C247.665 27.55 252.954 12.278 258.275 0.634033Z" fill="#FEFEFE"/>
<path d="M545.031 0.312988L643.484 0.488007C648.641 0.487007 678.115 0.0769871 681.603 0.967987C682.862 2.40399 682.413 2.55798 682.306 4.94998C678.343 8.70598 632.089 3.25398 624.036 7.86398C622.138 11.745 622.941 115.023 622.96 126.643C622.963 147.822 623.081 169.002 623.313 190.18C617.688 190.221 612.063 190.19 606.439 190.088C605.126 176.375 606.199 149.097 606.065 133.835C605.693 91.518 606.728 48.835 606.106 6.50198C596.933 6.38798 553.346 7.443 547.471 5.53C545.227 3.341 545.87 3.79799 545.031 0.312988Z" fill="#FEFEFE"/>
<path d="M903.896 0.35905C908.073 0.32705 918.149 -0.45095 920.721 2.58305C921.891 11.625 921.166 42.487 921.156 53.347L921.24 157.638C921.251 161.584 921.714 188.255 920.698 189.905L917.789 190.122C913.369 190.161 909.162 189.997 904.75 189.829C903.109 174.648 904.465 152.551 904.232 136.664C903.57 91.59 905.062 45.3491 903.896 0.35905Z" fill="#FEFEFE"/>
<path d="M168.168 0.256998C194.002 -0.211002 178.366 42.42 166.92 49.011C165.445 47.73 164.256 46.991 165.406 45.253C170.328 37.818 172.451 31.801 173.117 22.923C161.905 17.067 155.048 10.49 168.168 0.256998Z" fill="#FEFEFE"/>
</svg>
